<?xml version="1.0" encoding="UTF-8" standalone="no"?> <svg xmlns="http://www.w3.org/2000/svg" viewBox="0 0 64 64 "><g id="_25-Blood_Donation" data-name="25-Blood Donation"><path id="path3770-0-4" d="M12.99985,39.004c2-2,4-3.99995,8-3.99995h21A3.919,3.919,0,0,1,45.871,38.15592l8.84183-8.86484a3.72752,3.72752,0,0,1,5.283,0c1.46336,1.46334,1.19275,3.59175,0,5.28289-1.90314,2.69866-6.18712,8.89691-8.47808,12.21461a8.82806,8.82806,0,0,1-7.51786,4.2154h-17a5.19543,5.19543,0,0,0-4,2l-12-12.00018Z" fill="#fdd5a6"/><path id="path3772-0-8" d="M2.9999,45.004l5.99993-6,16,16-6,6Z" fill="#68b1fc"/><path id="path4948-3" d="M43,19.99993a9,9,0,1,1-18,0c0-6,9-17,9-17S43,13.99984,43,19.99993Z" fill="#fc6067"/><path d="M34.39771,28.97986A8.99262,8.99262,0,0,0,43,19.99994c0-6.00012-9-17.00006-9-17.00006s-.55029.67291-1.3772,1.774c.79126,1.07483,1.74835,2.42811,2.71533,3.93232,2.2851,3.55468,4.66535,7.79431,4.66535,11.29431A10.018,10.018,0,0,1,34.39771,28.97986Z" fill="#fb4b5b"/><path d="M51.5177,46.78857c2.291-3.31768,6.575-9.51593,8.47809-12.2146,1.19275-1.69116,1.46338-3.81958,0-5.28289a3.71256,3.71256,0,0,0-3.59076-.95856c.1015.0863.20984.16.305.25745a4.42033,4.42033,0,0,1,1.28,3.3,6.07047,6.07047,0,0,1-1.17,3.26c-1.9,2.69-6.19,8.89-8.48,12.21a10.85471,10.85471,0,0,1-4.0567,3.62695A8.844,8.844,0,0,0,51.5177,46.78857Z" fill="#fdca99"/><polygon points="19 61.004 25 55.004 22.838 52.842 16.84 58.84 16.837 58.842 19 61.004" fill="#539ffb"/><path d="M60.70312,28.58008a4.72706,4.72706,0,0,0-6.69726,0l-7.77838,7.77838A4.98827,4.98827,0,0,0,42,34H21c-4.41406,0-6.69482,2.28027-8.707,4.293L11,39.58594,9.707,38.293a.99962.99962,0,0,0-1.41406,0l-6,6a.99962.99962,0,0,0,0,1.41406l16,16a.99963.99963,0,0,0,1.41406,0l6-6a.99962.99962,0,0,0,0-1.41406l-1.27832-1.27832A3.56674,3.56674,0,0,1,27,52H44a9.78,9.78,0,0,0,8.34033-4.64746c4.24658-6.14942,7.09717-10.25586,8.47315-12.20606C62.43555,32.8457,62.39209,30.26855,60.70312,28.58008ZM19,59.58594,4.41406,45,9,40.41406,23.58594,55Zm40.17871-25.5918c-1.37891,1.95508-4.2334,6.06738-8.48389,12.22168A7.78828,7.78828,0,0,1,44,50H27a5.61293,5.61293,0,0,0-3.98517,1.60077L12.41406,41l1.293-1.293C15.69629,37.71777,17.41406,36,21,36H42a3,3,0,0,1,0,6H31a1,1,0,0,0,0,2H42a5.00588,5.00588,0,0,0,5-5,4.89414,4.89414,0,0,0-.05377-.53217l8.47369-8.47369a2.7909,2.7909,0,0,1,3.86914,0C60.46094,31.166,60.00049,32.82812,59.17871,33.99414ZM34,30A10.01146,10.01146,0,0,0,44,20c0-6.28516-8.84912-17.17285-9.22607-17.63281a1.03333,1.03333,0,0,0-1.54786,0C32.84912,2.82715,24,13.71484,24,20A10.01146,10.01146,0,0,0,34,30ZM34,4.61719C36.14453,7.40137,42,15.42383,42,20a8,8,0,0,1-16,0C26,15.42383,31.85547,7.40137,34,4.61719ZM30,19a.99974.99974,0,0,1,1-1h2V16a1,1,0,0,1,2,0v2h2a1,1,0,0,1,0,2H35v2a1,1,0,0,1-2,0V20H31A.99974.99974,0,0,1,30,19Z"/></g></svg>